Coordinates
version=1
nRows=28
nColumns=23
inDegrees=yes

Units are S.I. units (second, meters, Newtons, ...)
If the header above contains a line with 'inDegrees', this indicates whether rotational values are in degrees (yes) or radians (no).

endheader
time	pelvis_tilt	pelvis_list	pelvis_rotation	pelvis_tx	pelvis_ty	pelvis_tz	hip_flexion_r	hip_adduction_r	hip_rotation_r	knee_angle_r	knee_angle_r_beta	ankle_angle_r	subtalar_angle_r	mtp_angle_r	hip_flexion_l	hip_adduction_l	hip_rotation_l	knee_angle_l	knee_angle_l_beta	ankle_angle_l	subtalar_angle_l	mtp_angle_l
     22.50000000	     -7.57318682	      1.79204111	      7.41908830	      2.21803946	      0.89132353	      1.02601979	    -17.73728543	     -1.00605916	     -9.40960399	     57.15434082	      0.99753143	    -12.60194076	    -18.76394968	      0.00000000	     29.94417142	      7.83552076	      2.80983948	      9.74682823	      0.17011424	     10.31201903	      1.34018420	      0.00000000
     22.50666667	     -7.19074834	      2.39510042	      7.72552779	      2.21642257	      0.88763908	      1.02622175	    -16.51807741	     -1.46289060	     -8.97881182	     62.25148354	      1.08649335	    -13.29462541	    -18.60970066	      0.00000000	     29.95226931	      8.54765930	      2.04861291	     11.89730558	      0.20764715	      9.28483726	     -0.19350878	      0.00000000
     22.51333333	     -6.79588399	      3.00264828	      8.17106616	      2.21467735	      0.88352011	      1.02629165	    -15.31258223	     -1.97768295	     -8.91327646	     67.25470496	      1.17381604	    -13.88427147	    -18.17715429	      0.00000000	     30.08021644	      9.28746023	      1.39158614	     14.65063236	      0.25570177	      8.09642559	     -1.83762984	      0.00000000
     22.52000000	     -6.39148587	      3.57491499	      8.73785115	      2.21280222	      0.87900433	      1.02626190	    -14.12625991	     -2.51319863	     -9.12962353	     72.11752538	      1.25868827	    -14.33917066	    -17.62205511	      0.00000000	     30.28775181	     10.00707914	      0.91279393	     17.88508020	      0.31215354	      6.89048458	     -3.51585444	      0.00000000
     22.52666667	     -5.98505910	      4.07367189	      9.40501306	      2.21077117	      0.87415236	      1.02611022	    -12.93276524	     -3.04369061	     -9.56018830	     76.82693123	      1.34088290	    -14.62523839	    -17.08502642	      0.00000000	     30.53313439	     10.68144804	      0.70377467	     21.45146155	      0.37439863	      5.86822678	     -5.19355836	      0.00000000
     22.53333333	     -5.49072820	      4.49386763	     10.12262435	      2.20857401	      0.86920120	      1.02589526	    -11.81582392	     -3.55288449	    -10.12178880	     81.34264998	      1.41969706	    -14.78066529	    -16.70443767	      0.00000000	     30.68246179	     11.29484019	      0.79606909	     25.23419211	      0.44041974	      5.36811326	     -6.82392299	      0.00000000
     22.54000000	     -5.19791334	      4.80615093	     10.91934248	      2.20616363	      0.86384867	      1.02551232	    -10.42651300	     -4.08060317	    -10.79718968	     85.73638233	      1.49638216	    -14.69798311	    -16.40652390	      0.00000000	     31.02270307	     11.88943956	      1.17047691	     29.11795556	      0.50820420	      5.18363042	     -8.33918116	      0.00000000
     22.54666667	     -4.85781475	      5.03021935	     11.72252822	      2.20359698	      0.85862185	      1.02502495	     -9.03128100	     -4.61745556	    -11.51779997	     89.92404688	      1.56947069	    -14.53621396	    -16.31913320	      0.00000000	     31.23123977	     12.41908883	      1.74528882	     32.98973487	      0.57577949	      5.66008951	     -9.64159620	      0.00000000
     22.55333333	     -4.43618272	      5.24399473	     12.43844283	      2.20097730	      0.85371889	      1.02454337	     -7.65243676	     -5.19719067	    -12.12346500	     93.88852709	      1.63866393	    -14.33001573	    -16.45976563	      0.00000000	     31.19238542	     12.91332575	      2.44268540	     36.69212146	      0.64039833	      6.88271448	    -10.64125584	      0.00000000
     22.56000000	     -4.00922218	      5.37398501	     13.06883874	      2.19826401	      0.84912846	      1.02402794	     -6.16614593	     -5.85701257	    -12.69307064	     97.65209475	      1.70435057	    -14.08604727	    -16.78913514	      0.00000000	     31.00331700	     13.24779876	      3.08630205	     40.18750529	      0.70140429	      8.55301991	    -11.28722658	      0.00000000
     22.56666667	     -3.14814317	      5.63475840	     13.53338988	      2.19570014	      0.84568065	      1.02354478	     -5.11905577	     -6.64136280	    -13.11897367	    101.05058020	      1.76366534	    -13.92223723	    -17.32334035	      0.00000000	     30.01052715	     13.52221056	      3.69224192	     43.17861179	      0.75360894	     10.41665755	    -11.90366753	      0.00000000
     22.57333333	     -3.22212216	      5.44709810	     13.91782120	      2.19292153	      0.84140765	      1.02311244	     -2.68069920	     -7.17667304	    -13.23254457	    104.44068528	      1.82283383	    -13.64639055	    -17.81535609	      0.00000000	     30.05586788	     13.40477254	      4.09399924	     46.13015504	      0.80512309	     12.88987837	    -11.29189029	      0.00000000
     22.58000000	     -2.78183849	      5.38588252	     14.08882225	      2.19040744	      0.83847781	      1.02281522	     -0.74147918	     -7.78512247	    -13.18567455	    107.40958824	      1.87465096	    -13.51026940	    -18.46177358	      0.00000000	     29.18673855	     13.10762172	      4.29805282	     48.49086392	      0.84632523	     15.36011370	    -10.59348042	      0.00000000
     22.58666667	     -2.13857848	      5.42349555	     14.23075610	      2.18802207	      0.83651246	      1.02228943	      1.01162091	     -8.51296305	    -13.08448940	    109.99363321	      1.91975106	    -13.35044795	    -19.03160460	      0.00000000	     27.70016077	     12.98322052	      4.89264984	     50.20751135	      0.87628638	     17.53351354	    -10.69339205	      0.00000000
     22.59333333	     -2.27671326	      5.12315458	     14.04451732	      2.18555135	      0.83401343	      1.02223236	      4.03349287	     -9.03080653	    -12.53333673	    112.49658260	      1.96343576	    -13.22278832	    -19.69704076	      0.00000000	     27.06327527	     12.29407671	      4.73022131	     51.75952954	      0.90337421	     19.90160002	     -9.43569855	      0.00000000
     22.60000000	     -1.76727103	      5.05352685	     13.91315242	      2.18344102	      0.83311579	      1.02181472	      6.21708257	     -9.65042612	    -12.08837237	    114.41496977	      1.99691794	    -13.04589860	    -20.14280393	      0.00000000	     25.23766702	     11.91769325	      5.13776942	     52.57400026	      0.91758941	     21.82227931	     -9.35350090	      0.00000000
     22.60666667	     -2.15934329	      4.77111776	     13.38095812	      2.18122661	      0.83141381	      1.02209866	      9.79842356	    -10.06535538	    -11.08118225	    116.27970607	      2.02946372	    -12.84923421	    -20.67646037	      0.00000000	     24.39342098	     11.11022062	      4.65432322	     53.21786057	      0.92882689	     23.77051443	     -8.09556110	      0.00000000
     22.61333333	     -2.26413816	      4.59736017	     12.89636680	      2.17933162	      0.83074095	      1.02210448	     12.97072368	    -10.48506441	    -10.18476184	    117.61376503	      2.05274745	    -12.57951231	    -21.03476844	      0.00000000	     22.88228289	     10.52757979	      4.55055624	     53.29754627	      0.93021767	     25.30606520	     -7.58177798	      0.00000000
     22.62000000	     -2.52356582	      4.42590646	     12.39094276	      2.17763131	      0.83040846	      1.02208973	     16.30877566	    -10.84507507	     -9.28815689	    118.55484484	      2.06917239	    -12.22113744	    -21.28295399	      0.00000000	     21.32500504	     10.02471512	      4.51720084	     52.98027237	      0.92468019	     26.52237584	     -7.28559843	      0.00000000
     22.62666667	     -2.98691147	      4.25506327	     11.91539067	      2.17613914	      0.83032130	      1.02193796	     19.82465545	    -11.15560030	     -8.44055233	    119.09518614	      2.07860312	    -11.74651041	    -21.40504332	      0.00000000	     19.81060148	      9.64485039	      4.60050098	     52.33978801	      0.91350163	     27.40742684	     -7.19952979	      0.00000000
     22.63333333	     -3.06306860	      3.89448750	     11.81831037	      2.17534346	      0.83148199	      1.02132278	     22.53376394	    -11.27783252	     -8.29657267	    118.90908129	      2.07535498	    -11.27222608	    -21.46736797	      0.00000000	     17.67426003	      9.10669912	      5.16814451	     51.32800016	      0.89584260	     27.96988854	     -7.02698709	      0.00000000
     22.64000000	     -3.75748977	      3.90717595	     11.02575344	      2.17420094	      0.83204828	      1.02166192	     26.26475927	    -11.46025426	     -7.17354449	    118.73885082	      2.07238390	    -10.55047617	    -21.40888466	      0.00000000	     16.06729101	      8.92961049	      5.05896192	     49.98733625	      0.87244360	     28.19522199	     -7.38174919	      0.00000000
     22.64666667	     -3.99345054	      3.60999536	     10.68007117	      2.17387053	      0.83394173	      1.02149910	     28.99617464	    -11.35067326	     -6.92476303	    117.80063171	      2.05600888	     -9.83298643	    -21.30076708	      0.00000000	     13.85674656	      8.40256663	      5.37045970	     48.42283635	      0.84513793	     28.27756831	     -7.27280773	      0.00000000
     22.65333333	     -4.27165163	      3.26456838	     10.37068282	      2.17390143	      0.83625960	      1.02134795	     31.55915394	    -11.16030673	     -6.85049360	    116.44449849	      2.03233989	     -9.02788941	    -21.03468337	      0.00000000	     11.61918200	      7.80993958	      5.66202662	     46.65982849	      0.81436764	     28.14414716	     -7.08554286	      0.00000000
     22.66000000	     -4.19548244	      2.76729257	     10.21725754	      2.17454755	      0.83963807	      1.02104226	     33.34531936	    -10.82144387	     -7.21994631	    114.52262598	      1.99879689	     -8.11470583	    -20.58410120	      0.00000000	      8.91404018	      6.96490863	      6.04587379	     44.65224112	      0.77932863	     27.72031881	     -6.73216316	      0.00000000
     22.66666667	     -4.43842751	      2.26735524	      9.88051880	      2.17533524	      0.84288795	      1.02107374	     35.40712170	    -10.36364789	     -7.44169233	    112.34827796	      1.96084736	     -7.18885936	    -20.00624926	      0.00000000	      6.57092064	      6.05328726	      5.96875746	     42.55503321	      0.74272544	     26.91007240	     -6.31410533	      0.00000000
     22.67333333	     -3.94027252	      1.48587727	      9.89320480	      2.17689163	      0.84781383	      1.02064894	     36.09188628	     -9.71029540	     -8.37769381	    109.47430399	      1.91068705	     -6.22335804	    -19.32092398	      0.00000000	      3.36449319	      4.73611254	      6.22489856	     40.17990584	      0.70127165	     25.69389129	     -5.66135581	      0.00000000
     22.68000000	     -3.79587587	      0.77259278	      9.71001360	      2.17853440	      0.85242929	      1.02051652	     37.09463450	     -9.02122013	     -9.05815050	    106.41877634	      1.85735803	     -5.22709478	    -18.43102294	      0.00000000	      0.55919093	      3.49255045	      6.02858266	     37.71463980	      0.65824464	     23.84778414	     -5.17629914	      0.00000000
